<?xml version="1.0" encoding="utf-8"?>
<!-- Generator: Adobe Illustrator 27.5.0, SVG Export Plug-In . SVG Version: 6.00 Build 0)  -->
<svg version="1.1" xmlns="http://www.w3.org/2000/svg" xmlns:xlink="http://www.w3.org/1999/xlink" x="0px" y="0px"
	 viewBox="0 0 530 500" style="enable-background:new 0 0 530 500;" xml:space="preserve">
<g id="BACKGROUND">
	<rect style="fill:#FFFFFF;" width="530" height="500"/>
	<g>
		<defs>
			<rect id="SVGID_1_" x="337.872" y="342.45" width="192.128" height="157.55"/>
		</defs>
		<clipPath id="SVGID_00000029746480057362387360000016150199294299316156_">
			<use xlink:href="#SVGID_1_"  style="overflow:visible;"/>
		</clipPath>
		
			<path style="clip-path:url(#SVGID_00000029746480057362387360000016150199294299316156_);fill:none;stroke:#AFC4FA;stroke-width:2;stroke-linecap:round;stroke-linejoin:round;stroke-miterlimit:10;stroke-dasharray:10,15;" d="
			M345.247,505.005c9.78-18.92,27.57-33.18,39.82-39.43c28.25-14.41,62.29-2.97,89.29-21c25.64-17.13,20.79-46.29,33.27-71.36
			c7.43-14.92,16.8-25.17,27.37-32.47"/>
	</g>
	<g>
		<defs>
			<rect id="SVGID_00000044897700802104202040000015276122294900354228_" width="192.128" height="131.863"/>
		</defs>
		<clipPath id="SVGID_00000183229137905115242580000006375412970078682301_">
			<use xlink:href="#SVGID_00000044897700802104202040000015276122294900354228_"  style="overflow:visible;"/>
		</clipPath>
		
			<path style="clip-path:url(#SVGID_00000183229137905115242580000006375412970078682301_);fill:none;stroke:#AFC4FA;stroke-width:2;stroke-linecap:round;stroke-linejoin:round;stroke-miterlimit:10;stroke-dasharray:10,15;" d="
			M-5.002,126.935c10.9-0.04,21.75-2.3,31.47-7.44c11.97-6.33,21.15-15.8,23.14-29.43c2.12-14.53-0.46-26.32,7.95-39.56
			c19.98-31.45,48.46-18.86,78.77-22.71c21.84-2.77,42.36-15.07,55.4-32.8"/>
	</g>
	<path style="fill:#AFC4FA;" d="M507.551,236.24c10.547,96.918-74.871,159.098-166.124,201.413
		c-45.393,21.049-111.785,31.239-157.843,23.314c-52.76-9.077-67.126-45.97-80.497-90.279c-12.759-42.28-62.526-49.49-77.16-89.261
		c-15.362-41.751,12.759-88.428,39.157-120.017C122.135,93.143,230.062,25.561,324.72,37.795
		c62.542,8.083,73.844,52.11,91.432,101.642C432.51,185.51,501.654,182.06,507.551,236.24z"/>
	<g>
		<path style="fill:#FFFFFF;" d="M437.272,213.729c0,2.23,1.808,4.037,4.037,4.037c2.23,0,4.037-1.807,4.037-4.037
			s-1.808-4.037-4.037-4.037C439.079,209.691,437.272,211.499,437.272,213.729z"/>
		<path style="fill:#FFFFFF;" d="M68.344,219.964c0,2.23,1.808,4.037,4.037,4.037c2.23,0,4.037-1.808,4.037-4.037
			c0-2.23-1.807-4.037-4.037-4.037C70.151,215.926,68.344,217.734,68.344,219.964z"/>
		<path style="fill:#FFFFFF;" d="M94.239,306.341c0,2.23,1.807,4.037,4.037,4.037s4.037-1.807,4.037-4.037
			c0-2.23-1.808-4.037-4.037-4.037S94.239,304.111,94.239,306.341z"/>
		<path style="fill:#FFFFFF;" d="M290.625,434.306c0,2.23,1.808,4.037,4.037,4.037s4.037-1.808,4.037-4.037
			c0-2.23-1.807-4.037-4.037-4.037S290.625,432.076,290.625,434.306z"/>
		<path style="fill:#FFFFFF;" d="M464.45,274.024c0,2.23,1.808,4.037,4.037,4.037c2.23,0,4.037-1.808,4.037-4.037
			c0-2.23-1.808-4.037-4.037-4.037C466.257,269.987,464.45,271.794,464.45,274.024z"/>
		<path style="fill:none;stroke:#FFFFFF;stroke-linecap:round;stroke-linejoin:round;stroke-miterlimit:10;" d="M474.566,225.571
			c0,3.097,2.511,5.607,5.607,5.607c3.097,0,5.607-2.51,5.607-5.607s-2.51-5.607-5.607-5.607
			C477.076,219.964,474.566,222.474,474.566,225.571z"/>
		<path style="fill:none;stroke:#FFFFFF;stroke-linecap:round;stroke-linejoin:round;stroke-miterlimit:10;" d="M44.22,261.79
			c0,3.097,2.51,5.607,5.607,5.607c3.097,0,5.607-2.51,5.607-5.607s-2.511-5.607-5.607-5.607
			C46.73,256.183,44.22,258.694,44.22,261.79z"/>
		<path style="fill:#FFFFFF;" d="M245.085,80.886c0,2.23,1.807,4.037,4.037,4.037c2.23,0,4.037-1.807,4.037-4.037
			c0-2.23-1.808-4.037-4.037-4.037C246.892,76.848,245.085,78.656,245.085,80.886z"/>
		<path style="fill:none;stroke:#FFFFFF;stroke-linecap:round;stroke-linejoin:round;stroke-miterlimit:10;" d="M313.386,64.391
			c0,3.097,2.51,5.607,5.607,5.607c3.097,0,5.607-2.51,5.607-5.607c0-3.097-2.51-5.607-5.607-5.607
			C315.896,58.784,313.386,61.294,313.386,64.391z"/>
	</g>
</g>
<g id="OBJECTS">
	<path style="fill:#2149A2;" d="M191.077,398.405l0.87,5.05l-0.09-0.24c-0.48-1.42-0.78-2.8-0.78-4.06V398.405z"/>
	<g>
		<polygon style="fill:#2149A2;" points="459.003,365.126 186.189,433.622 176.999,409.731 444.945,342.45 		"/>
		<g>
			<polygon style="fill:#C9D7FA;" points="451.67,313.281 451.67,360.922 178.868,429.418 178.868,381.777 			"/>
			
				<line style="fill:none;stroke:#00184D;stroke-width:0.8758;stroke-linecap:round;stroke-linejoin:round;stroke-miterlimit:10;" x1="451.67" y1="353.041" x2="178.868" y2="421.536"/>
			
				<line style="fill:none;stroke:#00184D;stroke-width:0.8758;stroke-linecap:round;stroke-linejoin:round;stroke-miterlimit:10;" x1="451.67" y1="357.856" x2="178.868" y2="426.351"/>
			
				<line style="fill:none;stroke:#00184D;stroke-width:0.8758;stroke-linecap:round;stroke-linejoin:round;stroke-miterlimit:10;" x1="451.67" y1="343.411" x2="178.868" y2="411.907"/>
			
				<line style="fill:none;stroke:#00184D;stroke-width:0.8758;stroke-linecap:round;stroke-linejoin:round;stroke-miterlimit:10;" x1="451.67" y1="324.152" x2="178.868" y2="392.647"/>
			
				<line style="fill:none;stroke:#00184D;stroke-width:0.8758;stroke-linecap:round;stroke-linejoin:round;stroke-miterlimit:10;" x1="451.67" y1="328.966" x2="178.868" y2="397.462"/>
			
				<line style="fill:none;stroke:#00184D;stroke-width:0.8758;stroke-linecap:round;stroke-linejoin:round;stroke-miterlimit:10;" x1="451.67" y1="319.337" x2="178.868" y2="387.832"/>
			
				<line style="fill:none;stroke:#00184D;stroke-width:0.8758;stroke-linecap:round;stroke-linejoin:round;stroke-miterlimit:10;" x1="451.67" y1="348.226" x2="178.868" y2="416.721"/>
			
				<line style="fill:none;stroke:#00184D;stroke-width:0.8758;stroke-linecap:round;stroke-linejoin:round;stroke-miterlimit:10;" x1="451.67" y1="338.596" x2="178.868" y2="407.092"/>
			
				<line style="fill:none;stroke:#00184D;stroke-width:0.8758;stroke-linecap:round;stroke-linejoin:round;stroke-miterlimit:10;" x1="451.67" y1="333.781" x2="178.868" y2="402.277"/>
		</g>
		<g>
			<g>
				<defs>
					<path id="SVGID_00000170958951176855777470000001993534161631924616_" d="M459.003,305.657c0,0-269.37,67.631-269.498,67.667
						c-1.109,0.28-2.172,0.677-3.176,1.214L94.982,136.858l231.759-44.453L459.003,305.657z"/>
				</defs>
				<use xlink:href="#SVGID_00000170958951176855777470000001993534161631924616_"  style="overflow:visible;fill:#2149A2;"/>
				<clipPath id="SVGID_00000097461580657848204940000002797600280965864082_">
					<use xlink:href="#SVGID_00000170958951176855777470000001993534161631924616_"  style="overflow:visible;"/>
				</clipPath>
				<g style="clip-path:url(#SVGID_00000097461580657848204940000002797600280965864082_);">
					<g>
						<g>
							<polygon style="fill:#FFFFFF;" points="338.915,90.155 194.465,386.5 166.679,370.843 316.539,80.688 							"/>
							<polygon style="fill:#FD3741;" points="335.757,85.123 185.975,388.716 169.704,379.311 322.681,79.528 							"/>
						</g>
						<g>
							<polygon style="fill:#FFFFFF;" points="83.964,139.255 460.925,316.957 466.974,294.209 95.653,122.429 							"/>
							<polygon style="fill:#FD3741;" points="81.953,133.625 468.27,315.04 471.591,301.565 88.755,123.732 							"/>
						</g>
					</g>
					<g>
						<polygon style="fill:#FFFFFF;" points="378.437,153.131 416.739,214.163 305.919,239.665 359.646,343.389 304.661,357.74 
							254.798,251.429 133.96,279.236 109.25,210.051 224.008,185.785 186.261,105.307 231.861,96.69 272.68,175.494 						"/>
						<polygon style="fill:#FD3741;" points="381.373,157.822 271.328,181.248 228.218,97.381 190.008,104.602 230.386,189.963 
							111.132,215.349 131.832,273.307 256.35,244.854 309.174,356.528 355.248,344.504 299.013,235.105 413.461,208.952 						"/>
					</g>
				</g>
				<g style="clip-path:url(#SVGID_00000097461580657848204940000002797600280965864082_);">
					<polygon style="fill:none;" points="337.872,215.484 208.69,244.117 189.107,208.092 318.289,179.459 					"/>
					<text transform="matrix(1.0618 -0.2353 0.4775 0.8786 229.2889 213.4139)"><tspan x="0" y="0" style="fill:#00184D; font-family:'Podkova-SemiBold'; font-size:21.8001px;">Learn</tspan><tspan x="-31.217" y="25.689" style="fill:#FFFFFF; font-family:'Podkova-ExtraBold'; font-size:32.7002px;">English</tspan></text>
				</g>
			</g>
			
				<polyline style="fill:none;stroke:#FFFFFF;stroke-width:0.8758;stroke-linecap:round;stroke-linejoin:round;stroke-miterlimit:10;" points="
				94.982,136.858 326.741,92.405 459.003,305.657 			"/>
		</g>
		<path style="fill:#00184D;" d="M184.11,394.143v27.534c0,0.292,0.012,0.595,0.047,0.911c0.526,5.967,6.527,9.902,12.342,8.442
			l262.504-65.903v8.045l-265.547,66.674c-2.249,0.411-3.934,0.573-5.853,0.097c-4.591-1.138-10.225-5.27-11.363-18.266v-22.699
			c0-8.104,1.039-15.74,6.738-21.929c1.74-1.857,4.052-3.106,6.527-3.725c1.857-0.467,269.498-67.667,269.498-67.667v8.069
			l-266.859,67.013c-3.538,0.887-6.329,3.62-7.24,7.146C184.379,389.904,184.11,392.006,184.11,394.143z"/>
		<g>
			<path style="fill:#FD3741;" d="M246.761,385.682l-28.638,7.204l2.478,6.484c1.18,3.088,1.785,6.366,1.785,9.672v34.969
				l14.339-8.288l14.339,1.083v-34.925c0-3.334-0.616-6.64-1.816-9.751L246.761,385.682z"/>
			
				<polyline style="fill:none;stroke:#00184D;stroke-width:0.8758;stroke-linecap:round;stroke-linejoin:round;stroke-miterlimit:10;" points="
				251.065,436.806 236.726,435.723 222.387,444.011 222.387,413.384 			"/>
			
				<path style="fill:none;stroke:#FFFFFF;stroke-width:0.8758;stroke-linecap:round;stroke-linejoin:round;stroke-miterlimit:10;" d="
				M251.065,425.404v-23.523c0-3.334-0.616-6.64-1.816-9.751l-2.488-6.449"/>
		</g>
		<g>
			<path style="fill:#2149A2;" d="M176.24,398.977v22.699c0.117,1.284,0.269,2.487,0.467,3.608l-75.093-193.588l-14.211-36.653
				l0.012-0.012c-1.565-3.293-2.394-6.924-2.394-10.661v-27.534c0-7.847,3.678-15.238,9.937-19.979h0.023l91.347,237.679
				c-1.249,0.642-2.382,1.483-3.351,2.511C177.28,383.237,176.24,390.873,176.24,398.977z"/>
			<g>
				
					<path style="fill:none;stroke:#00184D;stroke-width:0.8758;stroke-linecap:round;stroke-linejoin:round;stroke-miterlimit:10;" d="
					M165.467,396.379c-0.676-4.189-1.016-8.424-1.016-12.667v-20.284c0-7.847,3.678-15.238,9.937-19.979"/>
				
					<path style="fill:none;stroke:#00184D;stroke-width:0.8758;stroke-linecap:round;stroke-linejoin:round;stroke-miterlimit:10;" d="
					M99.082,225.166c-0.676-4.189-1.016-8.423-1.016-12.666v-21.77c0-7.847,3.678-15.238,9.937-19.979"/>
				
					<line style="fill:none;stroke:#00184D;stroke-width:0.8758;stroke-linecap:round;stroke-linejoin:round;stroke-miterlimit:10;" x1="186.189" y1="374.152" x2="94.97" y2="136.846"/>
			</g>
			
				<path style="fill:none;stroke:#00184D;stroke-width:0.8758;stroke-linecap:round;stroke-linejoin:round;stroke-miterlimit:10;" d="
				M153.844,346.433l-41.702-106.379c-0.996-2.541-1.803-6.978-1.803-9.911v-8.438c0-2.933,0.807-3.251,1.803-0.71l41.702,106.379
				c0.996,2.541,1.803,6.978,1.803,9.911v8.438C155.647,348.656,154.84,348.974,153.844,346.433z"/>
		</g>
	</g>
</g>
</svg>
