<?xml version="1.0" standalone="no"?>
<!DOCTYPE svg PUBLIC "-//W3C//DTD SVG 20010904//EN"
 "http://www.w3.org/TR/2001/REC-SVG-20010904/DTD/svg10.dtd">
<svg version="1.0" xmlns="http://www.w3.org/2000/svg"
 width="800.000000pt" height="642.000000pt" viewBox="0 0 800.000000 642.000000"
 preserveAspectRatio="xMidYMid meet">

<g transform="translate(0.000000,642.000000) scale(0.100000,-0.100000)"
fill="#000000" stroke="none">
<path d="M1815 5958 c-281 -31 -565 -123 -781 -253 -361 -217 -550 -513 -531
-835 19 -319 245 -606 632 -798 120 -59 147 -69 140 -50 -3 8 -45 32 -93 53
-254 115 -498 339 -589 542 -207 463 125 969 772 1177 212 68 348 93 570 106
391 21 765 -49 1067 -201 249 -125 440 -308 533 -513 45 -99 59 -165 59 -281
0 -124 -13 -184 -65 -294 -186 -397 -708 -676 -1340 -716 -107 -7 -119 -10
-119 -26 0 -8 29 -10 108 -5 528 33 931 190 1207 471 232 235 312 499 235 775
-123 436 -661 783 -1319 850 -121 12 -372 11 -486 -2z"/>
<path d="M6093 5706 c-317 -61 -563 -262 -660 -538 -34 -96 -42 -267 -19 -377
43 -201 196 -397 395 -504 63 -34 91 -40 91 -19 0 4 -28 22 -63 40 -343 179
-487 587 -321 912 45 89 64 116 131 183 168 169 402 257 653 244 306 -16 571
-177 695 -422 97 -191 97 -390 0 -591 -76 -157 -242 -309 -401 -366 -36 -13
-64 -29 -64 -36 0 -19 36 -10 119 29 172 79 311 210 386 363 60 121 78 198 78
321 0 123 -18 200 -78 321 -99 201 -301 360 -543 425 -100 27 -298 34 -399 15z"/>
<path d="M2244 5645 c-22 -52 -74 -135 -86 -135 -5 0 -34 25 -65 56 -49 51
-56 55 -70 41 -20 -20 -8 -41 61 -105 l55 -50 -35 -58 c-20 -33 -44 -68 -55
-80 -10 -11 -19 -30 -19 -43 0 -43 41 -21 84 46 88 135 178 296 183 329 5 30
3 34 -16 34 -16 0 -26 -10 -37 -35z"/>
<path d="M1355 5595 c-5 -2 -29 -9 -52 -15 -31 -8 -43 -16 -43 -29 0 -27 22
-32 76 -15 33 10 51 11 58 4 6 -6 12 -56 14 -112 l4 -101 -53 7 c-91 13 -94
13 -97 -10 -4 -30 41 -44 141 -44 98 0 155 23 188 77 29 47 30 133 2 171 -39
52 -67 65 -150 68 -43 2 -82 2 -88 -1z m149 -59 c39 -16 71 -75 61 -113 -7
-31 -57 -83 -79 -83 -16 0 -21 27 -30 148 -2 35 0 62 5 62 5 0 24 -6 43 -14z"/>
<path d="M1719 5544 c-70 -44 -93 -154 -44 -212 47 -56 117 -51 156 10 26 43
24 155 -5 187 -33 36 -67 41 -107 15z m62 -54 c15 -8 19 -21 19 -57 0 -52 -20
-83 -55 -83 -47 0 -60 60 -25 118 21 34 30 38 61 22z"/>
<path d="M2624 5535 c-4 -9 8 -31 30 -55 29 -33 34 -44 26 -59 -14 -28 -64
-42 -99 -30 -25 9 -30 17 -33 47 -3 32 -6 37 -28 37 -23 0 -25 -3 -22 -40 5
-55 25 -82 72 -96 53 -16 109 1 144 42 35 41 33 68 -11 123 -38 46 -69 59 -79
31z"/>
<path d="M2298 5504 c-45 -42 -57 -78 -37 -113 30 -53 112 -65 168 -23 53 39
33 130 -36 158 -46 20 -54 18 -95 -22z m94 -41 c26 -23 23 -52 -8 -63 -61 -23
-104 19 -59 57 31 27 42 28 67 6z"/>
<path d="M5990 5377 c-16 -34 -41 -75 -53 -91 l-24 -29 -59 56 c-60 59 -77 65
-82 31 -2 -14 17 -39 59 -79 l62 -59 -24 -44 c-13 -25 -38 -64 -57 -89 -35
-45 -36 -73 -4 -73 23 0 38 21 149 210 98 165 115 206 92 221 -23 14 -27 11
-59 -54z"/>
<path d="M6495 5404 c-47 -24 -65 -45 -65 -74 0 -38 43 -74 130 -107 89 -34
103 -57 41 -68 -46 -8 -106 9 -115 31 -8 21 -50 14 -54 -8 -5 -28 45 -66 95
-74 94 -14 173 12 173 57 0 53 -37 85 -136 119 -93 32 -106 52 -49 76 49 20
85 18 112 -8 21 -20 25 -20 39 -6 13 13 14 20 4 37 -22 42 -117 55 -175 25z"/>
<path d="M6137 5398 c-24 -8 -28 -15 -24 -36 3 -14 -1 -46 -9 -71 -8 -25 -14
-67 -14 -94 0 -43 3 -49 33 -67 24 -15 48 -20 97 -19 100 2 125 10 125 39 0
23 -3 25 -35 20 -63 -9 -149 -5 -161 7 -7 7 -9 25 -5 46 5 28 10 34 25 30 21
-5 98 14 106 26 3 5 2 17 -1 26 -7 17 -18 17 -89 -1 -25 -6 -27 -5 -20 17 11
34 10 33 83 39 59 4 67 7 67 25 0 18 -7 20 -75 22 -41 1 -88 -3 -103 -9z"/>
<path d="M2463 5088 c4 -29 10 -102 13 -161 5 -80 11 -110 21 -114 22 -9 33 9
34 60 1 26 7 47 12 47 6 0 39 -16 74 -35 75 -41 96 -44 91 -12 -2 16 -24 34
-76 63 l-73 42 35 22 c51 31 79 69 65 86 -12 15 -39 19 -39 6 0 -8 -80 -72
-90 -72 -4 0 -11 26 -16 58 -8 49 -12 57 -33 60 -23 4 -24 2 -18 -50z"/>
<path d="M2262 5103 c-29 -11 -112 -228 -97 -253 3 -5 14 -10 25 -10 19 0 30
19 30 51 0 13 17 26 55 44 31 14 57 25 60 25 4 0 20 -49 29 -92 4 -19 13 -28
25 -28 26 0 33 24 20 77 -5 26 -8 52 -5 60 8 19 -4 43 -20 43 -8 0 -14 6 -14
14 0 8 -12 28 -26 45 -24 29 -50 37 -82 24z m58 -85 c0 -8 -62 -37 -69 -32 -2
2 7 20 20 40 21 34 23 35 36 18 7 -10 13 -21 13 -26z"/>
<path d="M1343 5071 c-54 -25 -77 -59 -64 -94 12 -32 38 -49 122 -83 35 -14
71 -32 79 -40 13 -13 13 -16 0 -25 -26 -17 -118 -5 -141 19 -22 24 -28 26 -47
13 -22 -13 -10 -43 27 -68 26 -18 48 -23 97 -23 76 0 111 12 125 43 9 19 7 31
-5 55 -19 36 -34 46 -131 82 -54 20 -70 30 -70 45 0 41 122 56 144 18 11 -21
41 -10 41 15 0 53 -102 78 -177 43z"/>
<path d="M1963 5080 c-62 -13 -86 -28 -80 -52 3 -11 -1 -53 -8 -94 -25 -126 6
-160 134 -151 83 5 121 19 121 42 0 23 -17 27 -79 14 -33 -6 -76 -8 -96 -5
-34 7 -35 9 -35 50 0 39 2 43 23 39 38 -7 102 19 102 42 0 22 -21 24 -82 10
-30 -7 -31 -6 -26 16 9 33 20 39 79 39 60 0 84 18 59 44 -18 17 -46 19 -112 6z"/>
<path d="M1643 5047 c-18 -7 -39 -19 -48 -27 -13 -14 -13 -20 5 -54 10 -22 22
-65 26 -98 5 -41 12 -62 24 -68 25 -13 42 10 34 47 -6 29 -4 30 55 46 71 20
101 45 101 86 0 68 -102 103 -197 68z m140 -56 c15 -15 -9 -39 -46 -46 -18 -4
-39 -9 -48 -11 -12 -3 -20 5 -28 27 -6 18 -11 33 -11 35 0 15 117 11 133 -5z"/>
<path d="M3035 4929 c-47 -13 -106 -79 -112 -126 -8 -61 30 -91 73 -58 19 15
19 15 -5 35 -22 19 -22 21 -7 45 22 33 56 55 98 62 29 4 41 0 71 -27 61 -53
51 -82 -49 -151 -90 -62 -119 -104 -111 -160 8 -64 47 -90 77 -54 11 13 9 19
-8 36 -12 11 -22 26 -22 34 0 22 46 71 115 120 73 51 85 69 85 118 0 93 -102
156 -205 126z"/>
<path d="M5915 4870 c-11 -4 -53 -14 -92 -20 -81 -14 -109 -34 -79 -55 10 -8
23 -12 29 -10 63 19 67 17 67 -22 0 -38 -18 -165 -25 -171 -1 -2 -17 -4 -34
-4 -36 -1 -54 -18 -45 -42 7 -18 50 -21 104 -7 19 6 54 15 78 21 36 9 43 15
40 33 -3 19 -9 22 -42 20 l-39 -3 7 47 c3 25 6 69 6 98 l0 53 53 12 c54 13 69
24 60 47 -6 14 -56 16 -88 3z"/>
<path d="M6265 4857 c-35 -8 -51 -18 -53 -31 -6 -30 10 -35 70 -21 32 7 60 9
63 4 3 -4 9 -54 12 -110 l6 -102 -54 6 c-30 4 -64 10 -76 13 -20 5 -23 2 -23
-19 0 -20 7 -28 36 -37 58 -19 163 -16 214 7 69 31 93 63 98 132 5 68 -12 108
-59 142 -39 27 -155 35 -234 16z m185 -52 c66 -34 81 -111 31 -164 -16 -17
-38 -31 -50 -31 -19 0 -21 6 -21 68 0 37 -3 84 -6 105 -7 42 0 46 46 22z"/>
<path d="M6645 4797 c-78 -78 -65 -201 23 -228 32 -9 44 -8 69 4 37 20 63 71
63 126 0 118 -83 170 -155 98z m89 -43 c20 -20 21 -83 0 -112 -36 -52 -103 -7
-84 57 11 38 37 71 56 71 7 0 20 -7 28 -16z"/>
<path d="M2193 4674 c-3 -8 -1 -20 5 -26 16 -16 42 -2 42 22 0 24 -38 28 -47
4z"/>
<path d="M2207 4594 c-9 -9 -8 -121 1 -188 5 -31 14 -53 25 -60 25 -16 39 10
31 54 -4 19 -10 71 -13 115 -5 61 -10 80 -21 83 -9 1 -19 0 -23 -4z"/>
<path d="M2650 4586 c-6 -8 -10 -34 -9 -57 3 -36 0 -43 -20 -51 -30 -11 -31
-9 -38 44 -7 50 -19 69 -39 61 -17 -6 -18 -51 -4 -120 5 -26 12 -70 15 -96 6
-42 9 -48 28 -45 19 3 22 9 22 46 0 36 4 46 25 57 33 18 40 11 40 -40 0 -46
20 -66 45 -45 17 14 9 111 -12 158 -8 20 -12 44 -8 59 9 37 -21 56 -45 29z"/>
<path d="M2345 4575 c-86 -45 -66 -116 43 -154 44 -15 88 -41 72 -41 -3 0 -23
-7 -45 -14 -33 -12 -44 -12 -65 -1 -32 17 -55 5 -46 -23 16 -48 119 -49 180
-1 52 41 24 95 -64 124 -48 16 -86 46 -73 58 10 11 61 8 68 -3 3 -5 15 -10 26
-10 23 0 27 41 6 59 -24 20 -71 22 -102 6z"/>
<path d="M1965 4570 c-4 -6 -1 -34 6 -63 6 -28 15 -87 18 -132 l6 -80 35 2
c91 5 175 11 178 12 1 0 -5 13 -15 27 -16 25 -20 26 -84 21 l-66 -6 -6 62 c-9
107 -26 167 -47 167 -10 0 -22 -5 -25 -10z"/>
<path d="M1769 4547 c-47 -31 -79 -98 -79 -164 0 -66 12 -92 56 -122 28 -19
43 -23 84 -19 79 8 120 60 120 153 0 59 -14 64 -100 36 -69 -23 -85 -37 -70
-61 8 -13 43 -8 108 17 12 5 14 1 8 -23 -13 -53 -33 -74 -72 -74 -75 0 -107
85 -64 169 21 43 35 51 86 51 29 0 34 3 34 24 0 16 -7 26 -22 30 -38 10 -54 7
-89 -17z"/>
<path d="M1579 4543 c-9 -10 -14 -42 -14 -87 l0 -71 -50 59 c-62 74 -78 84
-99 67 -23 -19 -23 -216 0 -249 13 -19 18 -21 31 -10 12 9 14 30 11 95 -1 46
-1 83 2 83 3 0 22 -24 43 -53 21 -28 53 -70 72 -92 30 -35 36 -38 49 -25 13
13 13 27 0 113 -10 67 -12 108 -5 131 13 49 -12 73 -40 39z"/>
<path d="M1233 4509 c-77 -10 -83 -14 -82 -51 1 -18 -6 -63 -15 -100 -20 -82
-11 -113 39 -133 40 -17 124 -19 177 -5 35 10 37 12 26 36 -7 15 -17 23 -26
19 -32 -12 -119 -16 -144 -6 -20 7 -28 18 -28 35 0 38 10 54 29 49 26 -7 98
15 104 31 11 27 -18 38 -63 26 -50 -13 -57 -9 -42 25 11 23 17 25 76 25 44 0
65 4 69 13 13 34 -35 48 -120 36z"/>
<path d="M3050 4411 c-38 -10 -34 -45 6 -49 34 -3 60 18 50 43 -6 16 -16 17
-56 6z"/>
<path d="M6220 4315 c-10 -12 -9 -16 5 -21 19 -8 40 9 31 25 -10 15 -21 14
-36 -4z"/>
<path d="M6235 4120 c10 -59 -9 -103 -68 -156 -59 -54 -183 -117 -263 -135
-54 -12 -67 -24 -38 -36 23 -9 130 24 199 60 72 39 167 124 189 171 18 39 21
88 6 117 -19 34 -32 22 -25 -21z"/>
<path d="M1780 3960 c0 -13 7 -20 18 -20 26 0 34 11 21 27 -17 20 -39 16 -39
-7z"/>
<path d="M1776 3794 c-25 -65 13 -159 90 -222 72 -59 235 -132 296 -132 34 0
19 28 -19 35 -109 20 -269 115 -320 190 -22 33 -25 45 -20 91 4 41 2 54 -8 54
-7 0 -16 -7 -19 -16z"/>
<path d="M5630 3674 c-79 -34 -121 -105 -100 -169 6 -19 21 -41 32 -49 20 -14
19 -15 -18 -21 -22 -3 -71 -13 -110 -22 l-71 -15 -30 -126 -29 -126 -36 -9
c-70 -17 -104 -84 -92 -185 7 -54 7 -55 67 -64 18 -3 19 -15 18 -180 -2 -181
12 -310 46 -432 12 -45 14 -61 5 -64 -7 -2 -12 -14 -12 -26 0 -57 -81 -106
-152 -92 -66 12 -121 57 -160 132 -80 152 -158 452 -158 608 0 62 4 77 28 111
24 35 27 49 26 115 -1 89 -30 210 -80 329 -72 175 -87 224 -74 244 19 31 -5
44 -25 13 -22 -33 -15 -61 42 -196 40 -93 93 -235 93 -248 0 -3 -10 4 -23 16
-57 54 -138 62 -217 22 -105 -54 -149 -195 -88 -287 52 -79 152 -113 232 -79
21 9 42 16 47 16 5 0 9 -28 9 -62 0 -177 99 -530 184 -656 69 -104 206 -143
287 -83 16 12 31 21 34 21 3 0 5 -51 5 -113 0 -133 17 -280 65 -552 19 -110
35 -202 35 -205 0 -3 66 -6 146 -6 80 -1 147 -3 149 -6 2 -2 -10 -89 -27 -193
-34 -219 -54 -270 -135 -354 -29 -30 -53 -58 -53 -62 0 -12 44 -19 125 -18
119 2 140 8 138 43 -1 16 -18 62 -38 103 -19 42 -35 85 -35 97 0 26 57 377 62
380 2 1 105 0 229 -2 l226 -4 18 -37 c10 -20 39 -99 65 -176 38 -112 46 -145
39 -170 -10 -34 -12 -149 -3 -181 5 -20 11 -21 72 -17 147 11 195 18 200 31 7
21 -100 118 -167 151 -52 27 -62 36 -71 70 -21 78 -83 257 -101 293 l-19 38
22 4 c13 3 52 10 88 16 36 6 103 26 150 44 47 19 93 36 103 39 12 5 17 18 18
44 1 21 4 49 8 63 l7 25 8 -23 c10 -31 63 -90 95 -107 27 -13 64 -18 134 -16
30 1 47 9 74 36 33 33 35 39 29 77 -10 64 -55 119 -128 158 -44 24 -45 30 -18
103 21 55 63 106 139 165 l42 34 -29 16 c-115 66 -368 205 -418 230 l-61 31
-17 68 c-12 46 -14 69 -6 71 6 2 8 21 5 50 -8 70 -45 497 -45 519 0 14 13 23
48 34 45 14 47 17 56 60 19 97 -14 183 -84 219 l-40 20 0 69 c0 47 -5 74 -14
84 -19 18 -149 54 -255 69 -62 9 -80 15 -76 26 24 63 10 123 -39 171 -46 45
-109 53 -162 22 l-37 -22 -26 24 c-53 50 -105 59 -171 31z m120 -29 c33 -17
60 -52 60 -77 0 -22 43 -68 64 -68 19 0 35 36 28 62 -2 10 -13 25 -23 32 -18
12 -18 13 7 24 38 18 67 15 105 -11 41 -27 63 -84 51 -130 l-8 -32 -195 0
c-107 0 -203 4 -214 9 -27 11 -65 47 -65 60 0 6 5 5 12 -2 18 -18 36 -15 48 9
16 28 4 68 -22 78 -20 7 -18 10 23 34 50 30 87 34 129 12z m21 -415 c7 -198
19 -261 65 -353 65 -127 127 -187 197 -187 52 0 73 13 99 63 20 36 23 57 22
147 0 119 -13 163 -103 353 -28 60 -54 120 -57 133 -6 22 -4 24 17 20 13 -3
56 -8 94 -12 73 -6 254 -48 266 -61 4 -5 12 -123 19 -263 6 -140 18 -322 26
-405 32 -317 33 -329 22 -336 -5 -4 -34 -9 -63 -13 -30 -3 -146 -24 -260 -46
-462 -89 -697 -104 -742 -49 -23 30 -53 133 -69 241 -29 196 -9 507 47 748 37
159 36 158 72 169 59 18 240 39 317 37 l25 -1 6 -185z m124 181 l50 -1 64
-137 c98 -210 112 -258 113 -372 0 -153 -34 -206 -112 -175 -45 18 -112 91
-144 157 -46 94 -58 160 -63 355 l-6 182 24 -4 c13 -3 47 -5 74 -5z m-1115
-203 c19 -13 45 -44 58 -70 36 -69 25 -129 -31 -182 -70 -65 -137 -82 -197
-51 -36 19 -74 68 -90 119 -23 70 21 159 95 192 49 22 127 18 165 -8z m1702
-96 c20 -35 31 -103 23 -141 -4 -21 -15 -33 -37 -40 -17 -6 -34 -8 -37 -5 -3
3 -8 57 -10 120 l-3 115 24 -12 c14 -6 32 -23 40 -37z m-1186 -19 c-2 -10 -10
-53 -17 -95 -11 -75 -13 -78 -39 -78 -24 0 -28 5 -34 41 -9 58 9 116 42 133
37 21 54 20 48 -1z m1187 -1030 c88 -358 114 -525 102 -640 l-7 -63 -63 -30
c-122 -58 -199 -72 -420 -77 -110 -2 -303 2 -429 9 l-230 13 -28 160 c-49 279
-68 440 -68 604 0 142 1 153 18 146 41 -17 80 -25 130 -27 l53 -2 42 -79 c60
-113 65 -116 117 -69 l43 38 33 -35 32 -35 -26 -34 c-19 -25 -27 -49 -30 -93
-4 -51 0 -68 26 -122 32 -64 144 -210 165 -215 13 -3 75 99 95 153 30 84 18
154 -39 226 -23 29 -29 44 -21 47 24 8 52 45 58 79 5 27 10 32 28 28 17 -3 36
16 104 109 l84 113 61 10 c127 20 107 45 170 -214z m-345 104 c-35 -47 -68
-84 -74 -82 -29 9 -155 110 -143 114 21 7 273 57 277 55 2 -1 -25 -40 -60 -87z
m-337 -4 c-5 -10 -39 -47 -76 -83 -75 -74 -74 -74 -121 25 l-24 50 88 11 c136
17 144 17 133 -3z m818 -104 c53 -28 149 -81 213 -117 l117 -65 -37 -27 c-20
-15 -47 -38 -59 -51 -30 -34 -71 -115 -79 -156 l-7 -35 -54 7 c-40 5 -60 3
-77 -8 l-23 -15 -17 101 c-9 56 -32 169 -51 252 -38 160 -38 165 -28 165 3 0
49 -23 102 -51z m152 -488 c46 -10 101 -43 134 -82 76 -91 9 -175 -117 -148
-80 18 -148 104 -148 188 0 47 20 64 65 55 17 -3 46 -9 66 -13z m-317 -808
c28 -19 59 -45 68 -58 l17 -22 -91 -8 c-71 -5 -93 -4 -99 7 -11 16 -12 112 -2
122 12 12 54 -4 107 -41z m-766 -30 c41 -93 42 -90 -42 -98 -42 -3 -80 -4 -86
0 -7 4 2 21 23 44 19 21 42 52 53 69 10 18 21 32 24 32 4 0 16 -21 28 -47z"/>
<path d="M5575 2820 c-18 -20 -14 -35 8 -35 21 0 29 -63 14 -108 -24 -70 -31
-208 -14 -250 34 -81 121 -74 247 18 42 31 52 34 75 25 53 -20 186 14 230 60
27 28 53 41 40 21 -8 -14 15 -25 27 -13 25 25 -18 82 -62 82 -37 0 -48 -18
-18 -29 l22 -8 -30 -31 c-60 -60 -170 -69 -268 -22 -88 42 -150 99 -185 173
-43 90 -45 103 -21 110 32 8 23 27 -13 27 -21 0 -41 -8 -52 -20z m99 -194 c35
-52 77 -87 140 -118 34 -18 19 -33 -18 -18 -19 7 -38 6 -67 -4 -39 -14 -42
-13 -46 5 -6 23 -6 23 -44 3 -17 -8 -33 -14 -35 -11 -6 6 13 175 21 187 9 14
8 15 49 -44z m110 -165 c9 -14 -76 -51 -116 -51 -41 0 -71 26 -47 41 20 12 37
11 41 -3 4 -10 16 -9 54 4 61 20 62 20 68 9z"/>
<path d="M2830 3584 c-8 -4 -29 -20 -47 -37 l-32 -30 -27 22 c-32 26 -92 28
-140 5 -61 -29 -92 -111 -71 -186 7 -26 6 -28 -25 -28 -36 0 -187 -31 -257
-53 -52 -16 -59 -30 -60 -114 -1 -61 -2 -63 -34 -77 -19 -7 -43 -26 -55 -40
-30 -39 -47 -123 -36 -182 9 -47 10 -49 57 -62 59 -17 59 24 5 -475 -10 -95
-10 -120 0 -126 10 -6 10 -21 -3 -73 l-17 -65 -197 -106 c-109 -59 -224 -122
-255 -141 l-57 -34 38 -29 c70 -52 122 -114 143 -169 27 -74 26 -81 -19 -104
-87 -44 -144 -136 -123 -198 14 -44 66 -72 134 -72 92 0 150 35 191 115 l15
30 7 -50 c10 -74 14 -85 34 -85 10 0 43 -11 73 -25 65 -30 198 -65 245 -65 18
0 33 -2 33 -4 0 -2 -11 -28 -24 -58 -14 -30 -43 -113 -66 -184 l-41 -129 -52
-29 c-105 -58 -194 -144 -170 -167 14 -13 247 -27 262 -15 11 9 13 34 8 126
-6 109 -4 120 24 210 17 52 44 127 60 166 l30 71 227 5 c125 3 228 4 230 3 5
-5 62 -349 62 -376 0 -15 -16 -60 -35 -102 -20 -41 -37 -87 -38 -103 -2 -27 1
-29 43 -36 101 -15 220 -7 220 16 0 7 -13 22 -29 34 -16 11 -50 53 -77 93 -47
71 -48 74 -70 223 -13 83 -27 173 -33 201 -5 27 -8 51 -6 53 2 2 62 6 134 9
112 5 131 4 131 -9 0 -42 79 -69 127 -45 45 23 101 91 108 131 8 40 -7 93 -36
130 l-20 25 23 12 c30 15 124 89 266 206 l112 94 -21 28 c-23 32 -187 180
-341 309 -89 75 -99 87 -95 110 3 15 15 70 27 122 18 78 23 136 27 318 l5 222
27 0 c14 0 31 4 38 8 18 11 26 102 14 149 -13 47 -60 93 -96 93 -20 0 -26 7
-33 38 -6 20 -20 78 -33 129 l-23 92 -70 15 c-39 8 -88 18 -110 21 -37 6 -38
7 -18 21 12 8 27 32 33 53 10 33 9 45 -7 77 -30 60 -84 97 -146 100 -29 2 -60
1 -68 -2z m124 -47 c23 -13 48 -38 59 -61 18 -35 19 -42 6 -64 -32 -58 -47
-61 -266 -66 l-202 -5 -10 30 c-15 44 -3 87 36 125 45 45 97 47 142 5 17 -16
31 -37 31 -46 0 -9 6 -15 13 -12 6 2 11 11 9 20 -7 42 57 97 113 97 17 0 48
-10 69 -23z m108 -236 c10 -2 43 -63 62 -116 37 -107 30 -350 -14 -468 -28
-74 -95 -147 -134 -147 -48 0 -92 59 -107 144 -17 91 -19 553 -3 564 6 4 13
14 16 22 5 13 19 14 89 9 46 -4 87 -8 91 -8z m-230 -28 c-14 -32 -17 -72 -17
-253 1 -129 6 -243 13 -284 45 -244 202 -262 307 -35 65 142 57 458 -14 568
-15 23 -15 23 20 16 18 -4 38 -11 42 -15 21 -19 78 -293 98 -470 15 -130 6
-419 -15 -513 -9 -37 -26 -91 -38 -119 -27 -64 -58 -78 -171 -78 -126 0 -263
19 -642 90 -115 22 -226 42 -245 45 l-35 5 3 52 c1 29 9 112 17 183 21 189 24
235 36 495 5 129 12 244 15 256 6 24 65 45 194 68 112 20 139 22 307 24 l142
2 -17 -37z m-673 -315 c-1 -128 -4 -137 -45 -126 -26 6 -33 14 -38 43 -12 64
11 140 53 172 9 7 19 13 24 13 4 0 7 -46 6 -102z m1183 29 c49 -45 46 -159 -3
-165 -24 -3 -26 0 -37 75 -7 43 -12 86 -12 96 0 24 22 21 52 -6z m-1081 -808
c53 -9 78 -17 85 -29 5 -10 38 -55 73 -101 35 -46 66 -90 69 -97 3 -9 13 -11
28 -8 20 5 24 2 30 -29 4 -21 18 -45 36 -60 l30 -25 -32 -40 c-45 -57 -62
-120 -49 -178 11 -50 87 -202 101 -202 10 0 58 54 111 124 97 129 116 221 60
300 l-30 42 32 36 33 35 46 -39 46 -39 40 62 c22 34 45 76 51 94 12 32 13 33
91 37 43 3 84 10 90 16 7 7 18 12 26 12 13 0 14 -31 9 -202 -5 -200 -10 -235
-69 -579 l-23 -136 -205 -9 c-113 -5 -304 -9 -425 -8 -244 1 -309 12 -446 75
l-67 31 -6 61 c-12 115 15 289 100 640 45 182 59 227 72 227 10 0 51 -5 93
-11z m405 -82 c2 -2 -31 -29 -74 -61 l-77 -57 -20 24 c-54 65 -115 145 -115
149 0 5 280 -49 286 -55z m267 -33 c37 -4 67 -9 67 -12 0 -11 -72 -132 -78
-132 -8 0 -101 95 -137 139 l-20 24 50 -6 c28 -4 80 -9 118 -13z m620 -260
c64 -63 117 -118 117 -122 0 -4 -9 -13 -19 -19 -10 -7 -76 -59 -145 -117 -70
-58 -146 -117 -170 -131 -41 -24 -45 -25 -80 -10 -33 14 -37 19 -32 43 19 90
38 280 43 429 l6 171 81 -65 c45 -36 134 -117 199 -179z m-1517 44 c-19 -84
-43 -199 -52 -255 l-17 -102 -23 16 c-18 11 -37 14 -78 9 l-54 -7 -7 38 c-11
59 -54 130 -113 184 l-53 49 37 22 c99 60 389 213 392 206 2 -4 -12 -76 -32
-160z m-108 -370 c23 -23 14 -91 -20 -148 -40 -65 -83 -90 -156 -90 -46 0 -58
4 -84 30 -32 33 -33 60 -2 108 20 30 91 81 123 88 14 3 40 9 56 13 44 13 69
13 83 -1z m1348 -118 c32 -20 74 -90 74 -124 0 -49 -66 -118 -126 -130 -54
-12 -57 5 -32 148 25 138 27 141 84 106z m-1036 -715 c0 -43 -4 -67 -12 -70
-7 -3 -53 -2 -103 2 l-90 8 43 39 c54 51 111 85 140 86 21 0 22 -4 22 -65z
m701 13 c6 -13 29 -44 51 -70 l39 -48 -86 0 c-98 0 -94 -6 -53 93 23 53 32 57
49 25z"/>
<path d="M2919 3474 c-7 -20 -6 -32 6 -50 18 -28 28 -30 49 -8 19 18 20 38 6
65 -15 28 -49 24 -61 -7z"/>
<path d="M2672 3478 c-17 -17 -15 -63 4 -79 22 -18 48 0 52 35 6 45 -29 71
-56 44z"/>
<path d="M2462 2953 c-28 -24 -40 -73 -18 -73 9 0 16 5 16 10 0 14 34 -8 49
-32 9 -15 5 -30 -24 -88 -67 -134 -115 -265 -115 -317 0 -70 19 -85 105 -84
78 1 87 3 232 47 l111 34 36 -21 c42 -25 132 -50 152 -42 15 6 19 50 5 72 -13
20 -33 3 -25 -21 5 -18 3 -19 -28 -13 -80 17 -127 55 -228 185 -54 70 -118
157 -143 196 -25 38 -57 80 -71 93 -29 28 -33 41 -11 41 8 0 15 7 15 15 0 20
-33 19 -58 -2z m142 -231 l57 -84 -93 7 c-51 4 -95 9 -98 12 -2 2 13 38 33 80
21 41 39 74 41 72 2 -2 29 -41 60 -87z m69 -116 c16 0 124 -123 115 -131 -5
-5 -171 -56 -173 -53 -1 2 -7 12 -12 22 -10 19 -120 54 -172 55 -20 1 -22 4
-16 28 3 15 13 42 21 61 l14 35 103 -8 c56 -5 110 -8 120 -9z m-183 -151 c23
-8 53 -15 66 -15 31 0 32 -26 2 -34 -40 -10 -134 -6 -146 6 -16 16 -15 45 1
51 21 9 33 8 77 -8z"/>
</g>
</svg>
